{"title":"The Quiet Ones 2014 HDRip XVID AC3 ACAB","uid":10200472,"size":1364691095,"categoryP":"video","categoryS":"movies","magnet":"?xt=urn:btih:4c0eaf5a867fbbba8d30c72393166dc96a319384&amp;dn=The+Quiet+Ones+2014+HDRip+XVID+AC3+ACAB&amp;tr=udp%3A%2F%2Ftracker.openbittorrent.com%3A80&amp;tr=udp%3A%2F%2Fopen.demonii.com%3A1337&amp;tr=udp%3A%2F%2Ftracker.coppersurfer.tk%3A6969&amp;tr=udp%3A%2F%2Fexodus.desync.com%3A6969","seeders":0,"leechers":0,"uploader":"Xetron","files":3,"time":1400768179,"description":"General\nComplete name                            : /home/itake/downloads/manual/The Quiet Ones 2014 HDRip XVID AC3 ACAB/The Quiet Ones 2014 HDRip XVID AC3 ACAB.avi\nFormat                                   : AVI\nFormat/Info                              : Audio Video Interleave\nFile size                                : 1.26 GiB\nDuration                                 : 1h 33mn\nOverall bit rate                         : 1 932 Kbps\nWriting library                          : VirtualDub build 30091/release\n\nVideo\nID                                       : 0\nFormat                                   : MPEG-4 Visual\nFormat profile                           : Advanced Simple@L5\nFormat settings, BVOP                    : 2\nFormat settings, QPel                    : No\nFormat settings, GMC                     : No warppoints\nFormat settings, Matrix                  : Default (H.263)\nMuxing mode                              : Packed bitstream\nCodec ID                                 : XVID\nCodec ID/Hint                            : XviD\nDuration                                 : 1h 33mn\nBit rate                                 : 1 796 Kbps\nWidth                                    : 720 pixels\nHeight                                   : 384 pixels\nDisplay aspect ratio                     : 1.85:1\nFrame rate                               : 25.000 fps\nColor space                              : YUV\nChroma subsampling                       : 4:2:0\nBit depth                                : 8 bits\nScan type                                : Progressive\nCompression mode                         : Lossy\nBits/(Pixel*Frame)                       : 0.260\nStream size                              : 1.17 GiB (93%)\nWriting library                          : XviD 1.2.1 (UTC 2008-12-04)\n\nAudio\nID                                       : 1\nFormat                                   : AC-3\nFormat/Info                              : Audio Coding 3\nMode extension                           : CM (complete main)\nFormat settings, Endianness              : Big\nCodec ID                                 : 2000\nDuration                                 : 1h 32mn\nBit rate mode                            : Constant\nBit rate                                 : 128 Kbps\nChannel(s)                               : 2 channels\nChannel positions                        : Front: L R\nSampling rate                            : 44.1 KHz\nBit depth                                : 16 bits\nCompression mode                         : Lossy\nDelay relative to video                  : 19ms\nStream size                              : 84.2 MiB (7%)\nAlignment                                : Split accross interleaves\nInterleave, duration                     : 40 ms (1.01 video frame)\nInterleave, preload duration             : 500 ms\n","torrent":{"xt":"urn:btih:4c0eaf5a867fbbba8d30c72393166dc96a319384","amp;dn":"The+Quiet+Ones+2014+HDRip+XVID+AC3+ACAB","amp;tr":["udp%3A%2F%2Ftracker.openbittorrent.com%3A80","udp%3A%2F%2Fopen.demonii.com%3A1337","udp%3A%2F%2Ftracker.coppersurfer.tk%3A6969","udp%3A%2F%2Fexodus.desync.com%3A6969"],"infoHash":"4c0eaf5a867fbbba8d30c72393166dc96a319384","infoHashBuffer":{"type":"Buffer","data":[76,14,175,90,134,127,187,186,141,48,199,35,147,22,109,201,106,49,147,132]},"announce":[],"urlList":[]}}